<svg width="64" height="64" viewBox="0 0 64 64" fill="none" xmlns="http://www.w3.org/2000/svg">
<g clip-path="url(#clip0)">
<path d="M54.6378 9.36303C42.152 -3.1202 21.8465 -3.1202 9.3606 9.36303C-3.11987 21.8463 -3.11987 42.157 9.3606 54.6403C15.6035 60.8806 23.802 63.9993 32.0006 63.9993C40.1992 63.9993 48.3949 60.8804 54.6378 54.6403C67.1211 42.1572 67.1211 21.8463 54.6378 9.36303ZM45.204 41.4341C46.2471 42.4772 46.2471 44.1633 45.204 45.2065C44.6838 45.7267 44.0008 45.9882 43.3178 45.9882C42.6348 45.9882 41.9518 45.7267 41.4315 45.2065L32.0005 35.7727L22.572 45.2037C22.0492 45.7239 21.3661 45.9854 20.6858 45.9854C20.0028 45.9854 19.3198 45.7239 18.7995 45.2037C17.7564 44.1606 17.7564 42.4718 18.7995 41.4313L28.2279 32.0003L18.7969 22.5692C17.7538 21.5261 17.7538 19.8373 18.7969 18.7968C19.8374 17.7537 21.5262 17.7537 22.5693 18.7968L32.0003 28.2279L41.4314 18.7968C42.4745 17.7537 44.1607 17.7537 45.2038 18.7968C46.2469 19.8373 46.2469 21.5261 45.2038 22.5692L35.7727 32.0003L45.204 41.4341Z" fill="#1E88E5"/>
</g>
<defs>
<clipPath id="clip0">
<rect width="64" height="64" fill="white"/>
</clipPath>
</defs>
</svg>
